<?xml version="1.0" encoding="UTF-8" standalone="no"?><!-- Generator: Gravit.io --><svg xmlns="http://www.w3.org/2000/svg" xmlns:xlink="http://www.w3.org/1999/xlink" style="isolation:isolate" viewBox="-2270.928435 -1049.08935 2882 2882" width="2882pt" height="2882pt"><circle vector-effect="non-scaling-stroke" cx="-829.928434803473" cy="391.91064976830717" r="1441" fill="rgb(235,235,235)"/><clipPath id="_clipPath_gzby2aFZAibWY7lYAj1q0oslr6QRNiXY"><circle vector-effect="non-scaling-stroke" cx="-829.928434803473" cy="391.91064976830717" r="1441" fill="rgb(235,235,235)"/></clipPath><g clip-path="url(#_clipPath_gzby2aFZAibWY7lYAj1q0oslr6QRNiXY)"><g filter="url(#5qaD9JsVN0ajUQSqpBfxUNGTzt6UuF2C)"><g><path d=" M -2098.406 1480.911 L -2036.406 1297.911 Q -2001.31 1239.86 -1955.406 1222.911 C -1902.602 1203.414 -1749.465 1120.701 -1730.406 1090.911 C -1671.375 1064.948 -1583.358 1015.584 -1516.406 922.911 C -1477.867 886.683 -1452.857 882.36 -1409.406 889.911 C -981.412 1123.399 -789.715 1173.763 -828.406 954.911 C -828.401 957.73 -822.048 938.75 -809.406 897.911 C -720.617 955.348 -634.607 994.025 -551.406 1013.911 C -463.955 1036.799 -397.945 1106.476 -353.406 1222.911 C -294.664 1400.92 -256.987 1529.597 -240.406 1608.911 C -193.064 1710.104 -193.054 1769.115 -240.406 1785.911 L -278.406 1812.911 L -133.406 2308.911 L -2098.406 2308.911 L -2098.406 1480.911 Z " fill="rgb(23,23,23)"/><linearGradient id="_lgradient_0" x1="-0.085526065362556" y1="0.13633812386987176" x2="0.9262371121605497" y2="0.6455794442933132" gradientTransform="matrix(997,0,0,941,-1227.405663,1367.91065)" gradientUnits="userSpaceOnUse"><stop offset="0%" stop-opacity="1" style="stop-color:rgb(192,65,255)"/><stop offset="100%" stop-opacity="1" style="stop-color:rgb(41,207,255)"/></linearGradient><path d=" M -1227.406 1626.911 L -1227.406 1540.911 C -1192.209 1497.317 -1149.532 1486.66 -1099.406 1508.911 C -830.459 1440.836 -600.928 1426.742 -431.406 1367.911 C -403.675 1394.12 -386.998 1432.13 -381.406 1481.911 C -311.54 1659.926 -261.196 1855.603 -230.406 2068.911 C -316.536 2140.712 -387.859 2183.055 -444.406 2195.911 L -608.406 2308.911 L -1022.406 2308.911 L -1227.406 1626.911 Z " fill="url(#_lgradient_0)"/><linearGradient id="_lgradient_1" x1="0.580117255140435" y1="0.5419675835688089" x2="1.0196892315183501" y2="-0.17791531610980182" gradientTransform="matrix(747.13367,0,0,899.496973,-1500.349035,370.91065)" gradientUnits="userSpaceOnUse"><stop offset="0%" stop-opacity="1" style="stop-color:rgb(128,97,84)"/><stop offset="100%" stop-opacity="1" style="stop-color:rgb(100,76,66)"/></linearGradient><path d=" M -1445.349 963.911 L -1500.349 931.911 Q -1459.729 898.698 -1400.406 866.911 C -1297.93 797.477 -1243.464 613.032 -1248.406 370.911 L -965.349 530.911 L -778.406 735.911 Q -801.188 914.945 -825 962 C -830.715 973.294 -744.132 1000.801 -754 1066 C -800.337 1372.145 -1003.704 1331.409 -1445.349 963.911 Z " fill="url(#_lgradient_1)"/><path d=" M -1256.136 372.002 L -1255.406 354.911 L -1310.406 322.911 L -1338.406 275.911 C -1375.072 170.355 -1360.729 97.698 -1301.406 65.911 L -1107.406 -328.089 L -717.406 -353.089 L -477.406 -216.089 L -430.406 22.911 L -456.406 52.911 C -445.688 93.436 -451.011 134.113 -472.406 174.911 C -487.933 203.504 -495.256 237.181 -494.406 275.911 C -492.092 320.61 -499.985 336.613 -512.406 390.911 C -533.346 482.457 -616.78 608.237 -650.406 639.911 C -659.62 648.59 -710.251 722.754 -775.406 732.911 C -852.785 744.973 -939.039 731.523 -1037.406 675.911 Q -1150.018 593.596 -1193.217 545.976 C -1230.299 505.098 -1258.493 427.143 -1256.136 372.002 Z " fill="rgb(141,107,92)"/><path d=" M -1324.406 137.911 C -1333.431 130.912 -1347.421 127.922 -1366.406 128.911 C -1369.378 136.001 -1369.701 141.677 -1367.406 145.911 C -1366.362 147.521 -1360.519 150.276 -1357.406 150.911 C -1356.964 151.001 -1356.877 148.145 -1356.439 148.234 C -1346.128 150.309 -1336.602 151.934 -1325.406 153.911 C -1322.883 150.849 -1321.54 145.526 -1321.406 137.911 L -1324.406 137.911 Z " fill="rgb(162,162,162)"/><g><ellipse vector-effect="non-scaling-stroke" cx="-1260.905662995048" cy="308.41064976830717" rx="13.5" ry="11.5" fill="rgb(46,46,46)"/><ellipse vector-effect="non-scaling-stroke" cx="-1260.905662995048" cy="306.4106497683073" rx="13.5" ry="9.5" fill="rgb(70,70,70)"/></g><g><path d=" M -1299.406 68.911 C -1305.67 9.505 -1288.327 -66.818 -1247.406 -160.089 C -1185.461 -245.144 -1136.451 -320.801 -1100.406 -387.089 C -1090.099 -420.801 -1059.089 -441.124 -1007.406 -448.089 C -950.822 -447.245 -895.145 -450.902 -840.406 -459.089 C -787.894 -466.784 -748.217 -463.107 -721.406 -448.089 C -605.654 -491.342 -608.292 -468.452 -723.406 -425.089 C -842.441 -374.754 -953.097 -309.744 -1055.406 -230.089 L -1207.406 -51.089 L -1264.406 59.911 L -1271.406 68.911 L -1299.406 68.911 Z " fill="rgb(36,36,36)"/><path d=" M -203.406 -140.089 L -464.406 -92.089 L -445.406 42.911 C -294.292 36.077 -222.948 -24.247 -203.406 -140.089 Z " fill="rgb(202,84,110)"/><path d=" M -261.406 -301.089 C -339.477 -285.38 -429.134 -252.37 -524.406 -208.089 L -462.406 -83.089 Q -385.603 -104.485 -211.406 -138.089 C -207.973 -192.864 -222.63 -249.188 -261.406 -301.089 Z " fill="rgb(74,134,232)"/><path d=" M -376.406 -406.089 C -452.498 -374.122 -538.154 -333.779 -633.406 -285.089 L -532.406 -195.089 C -470.701 -227.253 -378.357 -261.576 -261.406 -298.089 C -284.767 -338.493 -325.09 -374.483 -376.406 -406.089 Z " fill="rgb(70,195,183)"/><path d=" M -553.406 -459.089 L -792.406 -301.089 L -624.406 -276.089 C -530.486 -334.557 -447.809 -377.881 -376.406 -406.089 C -429.82 -438.678 -488.81 -456.335 -553.406 -459.089 Z " fill="rgb(255,183,0)"/><path d=" M -1083.406 -198.089 C -1018.989 -264.053 -911.313 -334.71 -760.406 -410.089 C -703.245 -438.835 -641.568 -455.159 -553.406 -459.089 L -788.406 -301.089 L -1083.406 -198.089 Z " fill="rgb(255,153,51)"/><path d=" M -1065.406 -240.089 C -1004.323 -302.599 -819.59 -403.67 -721.406 -448.089 C -605.654 -491.342 -498.644 -489.998 -400.406 -444.089 C -316.478 -401.35 -257.135 -342.007 -222.406 -266.089 C -171.866 -153.072 -188.856 -64.729 -273.406 -1.089 C -328.17 32.81 -384.493 51.487 -442.406 54.911 L -445.406 42.911 C -394.207 45.493 -339.197 27.17 -280.406 -12.089 C -204.534 -77.468 -190.857 -160.458 -239.406 -261.089 C -276.051 -331.514 -333.375 -386.171 -411.406 -425.089 C -504.302 -468.462 -608.292 -468.452 -723.406 -425.089 C -842.441 -374.754 -953.097 -309.744 -1055.406 -230.089 C -1148.439 -121.007 -1218.096 -24.331 -1264.406 59.911 Q -1169.623 -123.766 -1065.406 -240.089 Z " fill="rgb(23,23,23)"/></g><path d=" M -1245.406 89.911 C -1215.441 101.001 -1196.088 131.355 -1201.406 166.911 C -1200.718 225.647 -1207.698 260.667 -1208.406 285.911 L -1173.406 299.911 C -1185.888 235.16 -1183.878 174.17 -1167.406 116.911 C -1175.905 81.337 -1164.228 40.014 -1132.406 -7.089 C -1109.894 -38.399 -1088.551 -79.723 -1068.406 -131.089 C -1033.876 -122.93 -1001.532 -137.253 -971.406 -174.089 L -886.406 -211.089 C -866.686 -199.789 -848.342 -198.446 -831.406 -207.089 C -813.124 -198.606 -793.114 -194.929 -771.406 -196.089 C -754.813 -189.628 -729.803 -186.951 -696.406 -188.089 C -677.856 -169.308 -653.18 -154.631 -622.406 -144.089 C -585.524 -141.633 -566.847 -149.623 -548.406 -134.089 C -534.285 -120.137 -524.275 -98.46 -518.406 -69.089 C -510.841 -51.269 -498.498 -35.259 -481.406 -21.089 C -473.266 -4.233 -463.922 12.444 -453.406 28.911 L -450.406 52.911 L -416.406 -0.089 C -403.128 -9.064 -398.451 -29.054 -402.406 -60.089 C -394.558 -70.788 -395.882 -89.445 -406.406 -116.089 C -391.601 -166.474 -416.591 -203.131 -481.406 -226.089 C -511.05 -307.771 -555.335 -324.12 -628.406 -304.089 C -681.239 -351.951 -729.219 -349.931 -804.406 -320.089 C -854.042 -325.194 -893.365 -313.518 -922.406 -285.089 C -964.245 -276.066 -999.235 -260.723 -1027.406 -239.089 L -1090.406 -188.089 C -1118.693 -163.689 -1165.35 -104.346 -1178.406 -80.089 C -1198.617 -61.608 -1214.607 -41.931 -1226.406 -21.089 C -1243.11 3.048 -1255.1 25.725 -1262.406 46.911 C -1263.236 69.733 -1257.559 84.076 -1245.406 89.911 Z " fill="rgb(23,23,23)"/></g></g><defs><filter id="5qaD9JsVN0ajUQSqpBfxUNGTzt6UuF2C" x="-200%" y="-200%" width="400%" height="400%" filterUnits="objectBoundingBox" color-interpolation-filters="sRGB"><feGaussianBlur xmlns="http://www.w3.org/2000/svg" in="SourceGraphic" stdDeviation="6.440413594258542"/><feOffset xmlns="http://www.w3.org/2000/svg" dx="0" dy="0" result="pf_100_offsetBlur"/><feFlood xmlns="http://www.w3.org/2000/svg" flood-color="#E8E8E8" flood-opacity="0.74"/><feComposite xmlns="http://www.w3.org/2000/svg" in2="pf_100_offsetBlur" operator="in" result="pf_100_dropShadow"/><feBlend xmlns="http://www.w3.org/2000/svg" in="SourceGraphic" in2="pf_100_dropShadow" mode="normal"/></filter></defs></g></svg>