<svg width="345" height="79" viewBox="0 0 345 79" fill="none" xmlns="http://www.w3.org/2000/svg">
<path fill-rule="evenodd" clip-rule="evenodd" d="M50.0775 73.0207L50.5766 72.919C51.9126 72.6469 52.5906 71.1471 51.9124 69.9643L49.8104 66.2988C49.7122 68.0372 49.6136 69.7755 49.5151 71.5138C49.4819 72.0991 49.7027 72.635 50.0775 73.0207ZM47.0744 61.5277C46.8909 64.7991 46.7054 68.0711 46.5199 71.344C46.4731 72.1704 46.6287 72.9573 46.9418 73.6594L34.9155 76.1091C34.1368 76.2677 33.338 75.9503 32.8807 75.3004L18.7898 55.2765L18.0738 75.5028C18.037 76.5443 17.2064 77.383 16.1653 77.43L2.8304 78.0317C1.67512 78.0839 0.71653 77.1482 0.740681 75.992L1.47731 40.7257L2.21495 5.41144C2.23873 4.27315 3.20659 3.3843 4.34278 3.45732L19.9858 4.46266C21.1001 4.53427 21.9399 5.50432 21.8512 6.61733L20.2547 26.6632L32.6583 4.62574C33.0931 3.8534 33.9842 3.45926 34.8481 3.65727L49.6484 7.04968C49.5504 10.0519 49.4423 13.054 49.3255 16.0559L33.4656 37.796L47.0744 61.5277ZM52.49 11.7182C52.5365 10.4221 52.5814 9.12606 52.6243 7.82991C53.5968 8.40797 53.931 9.74286 53.2131 10.727L52.49 11.7182Z" fill="#F05D36"/>
<path fill-rule="evenodd" clip-rule="evenodd" d="M212.919 38.4407C212.651 38.0992 212.37 37.7703 212.073 37.4541C210.641 35.8916 208.883 34.6383 206.8 33.6943C204.716 32.7503 202.373 32.1969 199.769 32.0342C199.248 32.0016 198.58 32.0179 197.767 32.083C196.953 32.1156 196.074 32.1644 195.13 32.2295C194.186 32.262 193.226 32.2783 192.249 32.2783C191.305 32.2783 190.426 32.1969 189.612 32.0342C188.831 31.8389 188.18 31.5459 187.659 31.1553C187.171 30.7646 186.91 30.2113 186.878 29.4951C186.845 28.8766 187.008 28.3395 187.366 27.8838C187.724 27.4281 188.196 27.07 188.782 26.8096C189.368 26.5166 190.035 26.2887 190.784 26.126C191.533 25.9632 192.265 25.8493 192.981 25.7842C193.73 25.6865 194.43 25.6377 195.081 25.6377C195.765 25.6051 196.318 25.5889 196.741 25.5889C199.052 25.5889 201.412 25.8493 203.821 26.3701C205.391 26.684 206.913 27.0518 208.389 27.4733C209.63 27.828 210.919 26.9924 211.039 25.7069L212.529 9.79137C212.607 8.95636 212.159 8.15488 211.385 7.83208C210.337 7.39503 209.248 7.01514 208.118 6.69238C206.523 6.23665 204.879 5.8623 203.187 5.56934C201.526 5.27637 199.85 5.08105 198.157 4.9834C196.465 4.85319 194.821 4.78809 193.226 4.78809C189.645 4.78809 186.178 5.35775 182.825 6.49707C179.472 7.63639 176.494 9.28027 173.89 11.4287C171.318 13.5446 169.251 16.1325 167.688 19.1924C166.159 22.2197 165.394 25.654 165.394 29.4951C165.394 32.2946 165.849 34.8499 166.761 37.1611C167.672 39.4398 168.942 41.3929 170.569 43.0205C172.229 44.6156 174.199 45.8525 176.478 46.7314C178.789 47.6104 181.344 48.0498 184.144 48.0498H185.706C186.357 48.0498 187.057 48.0824 187.806 48.1475C188.554 48.2126 189.319 48.3265 190.101 48.4893C190.882 48.6195 191.582 48.8311 192.2 49.124C192.819 49.3844 193.323 49.7425 193.714 50.1982C194.104 50.6214 194.3 51.1423 194.3 51.7607C194.3 52.6722 194.023 53.3721 193.47 53.8604C192.916 54.3486 192.233 54.723 191.419 54.9834C190.638 55.2113 189.808 55.3577 188.929 55.4229C188.05 55.4554 187.301 55.4717 186.683 55.4717C183.427 55.4717 180.107 55.0485 176.722 54.2021C174.44 53.604 172.294 52.825 170.284 51.8651C168.97 51.2376 167.357 52.0398 167.195 53.487L165.554 68.1044C165.458 68.9586 165.918 69.7798 166.702 70.1316C167.765 70.6083 168.924 71.1091 170.179 71.6338C172.002 72.3499 173.89 73.0335 175.843 73.6846C177.796 74.3031 179.716 74.8239 181.604 75.2471C183.525 75.6702 185.283 75.8818 186.878 75.8818C191.012 75.8818 194.869 75.3936 198.45 74.417C202.063 73.4079 205.205 71.8617 207.874 69.7783C209.525 68.4851 210.958 66.9851 212.171 65.2784L212.919 38.4407ZM215.76 44.1902L215.35 58.8947C216.16 56.3081 216.565 53.4093 216.565 50.1982C216.565 48.0389 216.297 46.0362 215.76 44.1902Z" fill="#F05D36"/>
<path fill-rule="evenodd" clip-rule="evenodd" d="M167.194 20.2448C167.708 21.2832 168.174 22.3666 168.594 23.495C170.22 27.7358 171.032 32.4797 171.032 37.7267C171.032 39.5633 170.918 41.3659 170.689 43.1345C170.649 43.0967 170.609 43.0587 170.569 43.0205C168.941 41.3929 167.672 39.4398 166.76 37.1611C165.849 34.8499 165.393 32.2946 165.393 29.4951C165.393 26.0923 165.993 23.0089 167.194 20.2448ZM165.403 17.0957C165.271 17.3372 165.142 17.5813 165.016 17.828L165.01 17.8392C163.242 21.3388 162.393 25.2466 162.393 29.4951C162.393 32.6238 162.903 35.5584 163.969 38.2617L163.972 38.2685L163.975 38.2753C165.027 40.9058 166.514 43.2083 168.448 45.1418L168.469 45.163L168.49 45.1838C169.001 45.6741 169.535 46.1345 170.091 46.5653C170.044 46.7823 169.994 46.9987 169.943 47.2145C169.826 47.7021 169.7 48.185 169.565 48.6633C167.056 48.5607 164.54 50.2421 164.213 53.1524L163.305 61.2402C162.825 61.8632 162.323 62.471 161.799 63.0635C159.862 65.2558 157.666 67.1426 155.211 68.7239C152.79 70.3052 150.144 71.545 147.274 72.4435C144.404 73.306 141.36 73.7373 138.144 73.7373C135.032 73.7373 132.058 73.324 129.222 72.4974C126.421 71.6708 123.792 70.5208 121.337 69.0473C118.882 67.5379 116.651 65.7409 114.645 63.6565C112.674 61.5361 110.98 59.2001 109.562 56.6485C108.178 54.0609 107.089 51.2936 106.294 48.3466C105.533 45.3996 105.152 42.3269 105.152 39.1283C105.152 36.0017 105.515 32.9469 106.242 29.964C106.968 26.9451 108.005 24.106 109.354 21.4465C110.737 18.787 112.397 16.3432 114.334 14.115C116.271 11.8868 118.432 9.96409 120.818 8.34685C123.239 6.72961 125.85 5.47175 128.651 4.57329C131.452 3.67482 134.409 3.22559 137.522 3.22559C142.536 3.22559 147.101 4.03421 151.216 5.65145C155.366 7.26869 158.894 9.58673 161.799 12.6056C163.141 13.9675 164.342 15.4642 165.403 17.0957ZM166.988 55.3225C167.564 54.1796 168.081 53.0039 168.537 51.7955C167.838 52.061 167.286 52.6716 167.194 53.487L166.988 55.3225ZM147.326 34.654C147.775 36.0915 148 37.583 148 39.1283C148 40.7096 147.758 42.237 147.274 43.7105C146.79 45.184 146.098 46.4958 145.199 47.6458C144.3 48.7599 143.193 49.6584 141.879 50.3412C140.6 50.9881 139.147 51.3116 137.522 51.3116C135.896 51.3116 134.461 50.9342 133.216 50.1795C132.006 49.4248 130.986 48.4365 130.156 47.2145C129.326 45.9926 128.703 44.627 128.288 43.1175C127.873 41.6081 127.666 40.0987 127.666 38.5893C127.666 37.008 127.908 35.5165 128.392 34.1149C128.876 32.6773 129.568 31.4375 130.467 30.3952C131.401 29.3171 132.507 28.4725 133.787 27.8616C135.066 27.2506 136.519 26.9451 138.144 26.9451C139.735 26.9451 141.136 27.3045 142.346 28.0233C143.591 28.7061 144.628 29.6226 145.458 30.7726C146.288 31.8867 146.911 33.1805 147.326 34.654Z" fill="#F05D36"/>
<path fill-rule="evenodd" clip-rule="evenodd" d="M340.164 56.6747C339.79 58.0722 338.298 58.8485 336.939 58.3533L317.379 51.2286L324.506 70.7922C325.001 72.1517 324.224 73.6434 322.827 74.0179L307.958 78.0019C306.561 78.3764 305.143 77.4727 304.892 76.0478L301.283 55.5526L287.911 71.4977C286.981 72.6063 285.301 72.6799 284.278 71.6568L273.393 60.7722C272.37 59.7491 272.444 58.0691 273.552 57.1394L289.498 43.7667L269.002 40.1582C267.577 39.9074 266.674 38.4892 267.048 37.0917L271.032 22.223C271.407 20.8254 272.898 20.0491 274.258 20.5444L293.821 27.6705L286.697 8.11165C286.201 6.75218 286.978 5.26047 288.375 4.88599L303.228 0.906121C304.626 0.531647 306.044 1.43536 306.295 2.8603L309.906 23.3717L323.289 7.4139C324.219 6.3053 325.899 6.23174 326.922 7.25482L337.795 18.128C338.818 19.1511 338.745 20.8311 337.636 21.7609L321.679 35.1438L342.19 38.755C343.615 39.0059 344.519 40.424 344.144 41.8216L340.164 56.6747ZM296.677 43.2594C295.737 43.0126 294.772 43.5719 294.522 44.5086C294.272 45.4452 294.831 46.4046 295.771 46.6514C300.385 47.863 304.05 48.2324 307.439 47.3071C310.836 46.3799 313.688 44.2259 316.836 40.9898C317.514 40.2933 317.498 39.1829 316.8 38.5097C316.102 37.8365 314.987 37.8554 314.31 38.5519C311.322 41.6228 309.006 43.2443 306.515 43.9242C304.017 44.6062 301.075 44.4144 296.677 43.2594Z" fill="#F05D36"/>
<path fill-rule="evenodd" clip-rule="evenodd" d="M268.807 19.9164L268.492 5.66383C268.467 4.55908 267.552 3.68349 266.447 3.70853L251.159 4.0551C250.074 4.07969 249.207 4.96443 249.204 6.04927L249.106 42.7738H237.689L239.151 8.79353C239.196 7.73216 238.404 6.8203 237.347 6.71706L218.992 4.92481C217.838 4.81215 216.831 5.70088 216.799 6.85969L214.961 72.8632C214.93 73.9891 215.834 74.9189 216.96 74.9189H233.907C234.984 74.9189 235.868 74.0658 235.906 72.9893L236.558 54.4996H248.386L248.575 74.391C248.585 75.4192 249.372 76.2724 250.396 76.3641L267.866 77.9286C269.054 78.0349 270.07 77.0847 270.044 75.8923L269.677 59.2764C269.673 59.1933 269.671 59.1101 269.671 59.027L269.323 43.2603L268.482 43.1124C265.324 42.5563 263.32 39.4127 264.151 36.3148L268.135 21.4461C268.284 20.8889 268.513 20.3762 268.807 19.9164ZM269.023 29.7199L267.048 37.0912C266.674 38.4888 267.578 39.9069 269.003 40.1578L269.255 40.2023L269.023 29.7199Z" fill="#F05D36"/>
<path d="M51.9124 69.9642L33.4656 37.7959L1.47731 40.7256L0.740681 75.9919C0.71653 77.1481 1.67512 78.0837 2.8304 78.0316L16.1653 77.4299C17.2064 77.3829 18.037 76.5442 18.0738 75.5026L18.7898 55.2764L32.8807 75.3002C33.338 75.9501 34.1368 76.2676 34.9155 76.109L50.5766 72.9189C51.9126 72.6467 52.5906 71.1469 51.9124 69.9642Z" fill="#F05D36"/>
<path fill-rule="evenodd" clip-rule="evenodd" d="M105.862 21.3408C105.887 21.4383 105.912 21.536 105.937 21.6339C104.836 24.0532 103.967 26.596 103.326 29.2583C102.543 32.4765 102.153 35.7684 102.153 39.1283C102.153 42.567 102.562 45.8925 103.389 49.0965L103.393 49.1125L103.398 49.1284C104.25 52.2862 105.422 55.2666 106.916 58.0628L106.928 58.0843L106.94 58.1056C107.279 58.7153 107.632 59.3138 108 59.9011C107.988 60.411 107.976 60.9202 107.962 61.4287C107.908 64.3718 107.822 67.3369 107.702 70.3241C107.659 71.4065 106.757 72.2536 105.674 72.2348L81.8211 71.8207C80.5972 71.7994 79.6797 70.6936 79.8773 69.4856C80.6942 64.4928 81.4132 59.5123 82.0342 54.5439C82.7504 48.7822 83.1084 42.9717 83.1084 37.1123C83.1084 36.6891 83.0922 36.0055 83.0596 35.0615C83.0271 34.1175 82.962 33.0596 82.8643 31.8877C82.7666 30.6833 82.6202 29.4626 82.4248 28.2256C82.2621 26.9561 82.0179 25.8005 81.6924 24.7588C81.3995 23.7171 81.0251 22.8708 80.5694 22.2197C80.1462 21.5361 79.6254 21.1943 79.0069 21.1943C77.9001 21.1943 76.9561 21.5199 76.1748 22.1709C75.4261 22.8219 74.7914 23.6683 74.2705 24.71C73.7823 25.7191 73.3916 26.8584 73.0987 28.1279C72.8057 29.3975 72.5778 30.667 72.4151 31.9365C72.2849 33.2061 72.1872 34.4105 72.1221 35.5498C72.0896 36.6566 72.0733 37.568 72.0733 38.2842C71.9105 44.0459 71.7803 49.7751 71.6827 55.4717C71.5954 60.5319 71.4822 65.6442 71.343 70.8084C71.3148 71.8528 70.4864 72.6987 69.4428 72.7499L54.4944 73.483C55.3521 72.0116 55.4595 70.1188 54.5151 68.4719L50.1199 60.8074C51.1239 42.8815 52.0678 24.9501 52.6518 7.00627C52.6855 5.97156 53.5019 5.13242 54.5354 5.07201L70.5865 4.13371C71.7547 4.06542 72.7318 5.01038 72.7025 6.18029L72.5616 11.8193C73.473 10.7126 74.4496 9.6709 75.4913 8.69434C76.5655 7.71777 77.7048 6.8877 78.9092 6.2041C80.1136 5.48796 81.3832 4.93457 82.7178 4.54395C84.085 4.12077 85.5173 3.90918 87.0147 3.90918C89.7816 3.90918 92.2067 4.36491 94.2901 5.27637C96.3734 6.18783 98.1638 7.4248 99.6612 8.9873C101.159 10.5498 102.412 12.4053 103.421 14.5537C104.43 16.6696 105.244 18.932 105.862 21.3408ZM50.0778 73.0206C49.7031 72.635 49.4823 72.0991 49.5155 71.5138C49.614 69.7755 49.7125 68.0373 49.8108 66.299L51.9127 69.9643C52.5909 71.147 51.9128 72.6468 50.5769 72.919L50.0778 73.0206ZM106.242 29.964C106.474 28.9998 106.738 28.0539 107.033 27.1264C107.123 27.7147 107.204 28.309 107.278 28.9092C107.604 31.5133 107.815 34.085 107.913 36.624C108.043 39.1631 108.108 41.6208 108.108 43.9971V50.4912C108.108 51.5247 108.105 52.5557 108.097 53.584C107.385 51.9063 106.784 50.1605 106.294 48.3466C105.533 45.3996 105.153 42.3269 105.153 39.1283C105.153 36.0017 105.516 32.9469 106.242 29.964Z" fill="#F05D36"/>
<path d="M51.9126 69.9638L33.4658 37.7955L39.7677 29.0879L1.65741 32.1137L1.47754 40.7252L0.740906 75.9915C0.716756 77.1477 1.67534 78.0833 2.83063 78.0312L16.1655 77.4294C17.2066 77.3825 18.0372 76.5438 18.0741 75.5022L18.79 55.2759L32.8809 75.2998C33.3382 75.9497 34.137 76.2672 34.9157 76.1086L50.5768 72.9185C51.9128 72.6463 52.5909 71.1465 51.9126 69.9638Z" fill="#F05D36"/>
</svg>
