<?xml version="1.0" encoding="UTF-8" standalone="no"?><!-- Generator: Gravit.io --><svg xmlns="http://www.w3.org/2000/svg" xmlns:xlink="http://www.w3.org/1999/xlink" style="isolation:isolate" viewBox="-997.506862 -1518.019849 2264.506862 2264.506862" width="2264.506862pt" height="2264.506862pt"><linearGradient id="_lgradient_0" x1="3.3306690738754696e-16" y1="1" x2="0.920052596161791" y2="-0.011582514833731405" gradientTransform="matrix(1363.907471,0,0,1712.467163,-547.207166,-1242)" gradientUnits="userSpaceOnUse"><stop offset="0%" stop-opacity="1" style="stop-color:rgb(0,204,255)"/><stop offset="97.3913043478261%" stop-opacity="1" style="stop-color:rgb(255,0,191)"/></linearGradient><path d=" M -518.736 388.103 L -17.612 -897.031 L -547.207 -1192.368 L -547.207 449.51 L -518.736 388.103 L -518.736 388.103 L -518.736 388.103 L -518.736 388.103 L -518.736 388.103 Z  M 57.65 -855.06 L 366.814 -682.65 L 816.7 -336.206 L 816.7 -336.206 L 816.7 -300.54 C 816.7 124.991 471.224 470.467 45.693 470.467 L -547.207 470.467 L -547.207 461.117 L -547.207 461.117 L -518.736 388.103 L 57.65 -855.06 L 57.65 -855.06 L 57.65 -855.06 L 57.65 -855.06 L 57.65 -855.06 Z  M 6.875 -959.828 L -359.548 -1242 L 39.129 -1242 C 64.882 -1242 90.344 -1240.745 115.447 -1238.26 L 6.875 -959.828 L 6.875 -959.828 L 6.875 -959.828 L 6.875 -959.828 Z  M 226.474 -1219.184 C 565.264 -1135.298 816.7 -828.994 816.7 -464.428 L 816.7 -431.764 L 816.7 -431.764 L 366.814 -682.65 L 366.814 -682.65 L 80.086 -903.451 L 226.474 -1219.184 L 226.474 -1219.184 L 226.474 -1219.184 Z  M 56.747 -431.764 C 56.747 -474.814 91.697 -509.764 134.747 -509.764 C 177.796 -509.764 212.747 -474.814 212.747 -431.764 C 212.747 -388.715 177.796 -353.764 134.747 -353.764 C 91.697 -353.764 56.747 -388.715 56.747 -431.764 Z " fill-rule="evenodd" fill="url(#_lgradient_0)"/></svg>