<?xml version="1.0" encoding="UTF-8" standalone="no"?><!-- Generator: Gravit.io --><svg xmlns="http://www.w3.org/2000/svg" xmlns:xlink="http://www.w3.org/1999/xlink" style="isolation:isolate" viewBox="224 224 576 576" width="576pt" height="576pt"><linearGradient id="_lgradient_0" x1="0.7000111078210298" y1="-0.025385853850266288" x2="0.37788567738394563" y2="0.8918109824324231" gradientTransform="matrix(576,0,0,576,224,224)" gradientUnits="userSpaceOnUse"><stop offset="0%" stop-opacity="1" style="stop-color:rgb(0,187,255)"/><stop offset="100%" stop-opacity="1" style="stop-color:rgb(77,50,255)"/></linearGradient><path d=" M 608 341.027 L 608 381.217 C 608 400.414 623.586 416 642.783 416 L 765.217 416 C 784.414 416 800 431.586 800 450.783 L 800 573.217 C 800 592.414 784.414 608 765.217 608 L 642.783 608 C 623.586 608 608 623.586 608 642.783 L 608 765.217 C 608 784.414 592.414 800 573.217 800 L 450.783 800 C 431.586 800 416 784.414 416 765.217 L 416 759.125 Q 416 759.125 613.744 497.334 C 620.224 488.755 616.757 481.791 606.006 481.791 L 556.666 481.791 C 545.915 481.791 541.11 473.994 545.941 464.391 Q 608 341.027 608 341.027 Z  M 608 314.908 L 608 258.783 C 608 239.586 592.414 224 573.217 224 L 450.783 224 C 431.586 224 416 239.586 416 258.783 L 416 381.217 C 416 400.414 400.414 416 381.217 416 L 258.783 416 C 239.586 416 224 431.586 224 450.783 L 224 573.217 C 224 592.414 239.586 608 258.783 608 L 381.217 608 C 400.414 608 416 623.586 416 642.783 L 416 728.713 Q 416 728.713 482.413 567.364 C 486.505 557.422 481.1 549.351 470.349 549.351 L 418.18 549.351 C 407.43 549.351 404.514 542.841 411.674 534.821 Q 608 314.908 608 314.908 Z " fill-rule="evenodd" fill="url(#_lgradient_0)"/></svg>