<?xml version="1.0" encoding="UTF-8" standalone="no"?><!-- Generator: Gravit.io --><svg xmlns="http://www.w3.org/2000/svg" xmlns:xlink="http://www.w3.org/1999/xlink" style="isolation:isolate" viewBox="310.344953 354.180512 161.363843 161.36383" width="161.363843pt" height="161.36383pt"><path d=" M 345.131 494.643 L 359.848 509.36 C 364.731 514.243 374.11 516.756 380.78 514.969 L 410.367 507.041 L 439.954 499.113 C 446.624 497.326 453.49 490.46 455.277 483.79 L 463.205 454.203 L 471.133 424.615 C 472.92 417.945 470.407 408.566 465.524 403.684 L 459.934 398.093 L 418.356 398.093 L 418.356 420.515 L 451.949 420.515 L 451.949 442.937 L 418.356 442.937 L 418.356 487.703 L 395.934 487.703 L 395.934 466.282 Q 391.007 470.323 384.935 472.937 L 384.935 472.937 L 384.935 472.937 Q 376.771 476.453 367.553 476.453 L 367.553 476.453 L 345.131 476.453 L 345.131 476.453 L 345.131 494.643 Z  M 322.709 472.221 L 316.529 466.041 C 311.647 461.159 309.133 451.779 310.921 445.11 L 318.849 415.522 L 322.709 401.116 L 322.709 472.221 Z  M 326.533 386.843 L 326.776 385.935 C 328.564 379.265 335.43 372.399 342.1 370.612 L 371.687 362.684 L 401.274 354.756 C 407.944 352.969 417.323 355.482 422.206 360.365 L 437.512 375.672 L 395.934 375.672 L 395.934 397.077 L 395.934 397.077 Q 393.179 394.8 390.092 392.976 L 390.092 392.976 L 390.092 392.976 Q 385.131 390.047 379.428 388.445 L 379.428 388.445 L 379.428 388.445 Q 373.724 386.843 367.553 386.843 L 367.553 386.843 L 326.533 386.843 Z  M 367.553 409.265 L 345.131 409.265 L 345.131 454.109 L 367.553 454.109 L 367.553 454.109 Q 372.162 454.109 376.224 452.351 L 376.224 452.351 L 376.224 452.351 Q 380.287 450.593 383.334 447.547 L 383.334 447.547 L 383.334 447.547 Q 386.381 444.5 388.138 440.398 L 388.138 440.398 L 388.138 440.398 Q 389.896 436.297 389.896 431.687 L 389.896 431.687 L 389.896 431.687 Q 389.896 427.078 388.138 422.976 L 388.138 422.976 L 388.138 422.976 Q 386.381 418.875 383.334 415.828 L 383.334 415.828 L 383.334 415.828 Q 380.287 412.781 376.224 411.023 L 376.224 411.023 L 376.224 411.023 Q 372.162 409.265 367.553 409.265 L 367.553 409.265 L 367.553 409.265 L 367.553 409.265 Z " fill-rule="evenodd" fill="rgb(33,192,251)"/></svg>